<svg width="187" height="187" viewBox="0 0 187 187" fill="none" xmlns="http://www.w3.org/2000/svg">
<path d="M1 68.2727V44.2468C1 20.3169 20.3169 1 44.2468 1H68.2727" stroke="white" stroke-linecap="round" stroke-linejoin="round"/>
<path d="M118.727 1H142.753C166.682 1 185.999 20.3169 185.999 44.2468V68.2727" stroke="white" stroke-linecap="round" stroke-linejoin="round"/>
<path d="M186.001 129.94V143.955C186.001 167.22 167.22 186.001 143.955 186.001H129.94" stroke="white" stroke-linecap="round" stroke-linejoin="round"/>
<path d="M68.2727 185.999H44.2468C20.3169 185.999 1 166.682 1 142.753V118.727" stroke="white" stroke-linecap="round" stroke-linejoin="round"/>
<path d="M139.75 70.3691V116.619C139.75 135.119 130.5 144.369 112 144.369H75C56.5 144.369 47.25 135.119 47.25 116.619V70.3691C47.25 51.8691 56.5 42.6191 75 42.6191H112C130.5 42.6191 139.75 51.8691 139.75 70.3691Z" stroke="white" stroke-linecap="round" stroke-linejoin="round"/>
<path d="M158.25 93.4941H28.75" stroke="white" stroke-linecap="round" stroke-linejoin="round"/>
</svg>
